# xmcd CD database file
#
# Track frame offsets:
#	150
#	17664
#	34116
#	58209
#	78761
#	97732
#	115436
#	134358
#	153684
#	173747
#	193598
#
# Disc length: 2851 seconds
#
# Revision: 0
# Processed by: cddbd v1.5.1PL0 Copyright (c) Steve Scherf et al.
# Submitted via: CDex 1.51
#
DISCID=890b210b
DTITLE=Mars Lasar - Panorama 11.04
DYEAR=2004
DGENRE=New Age
TTITLE0=Diabolique
TTITLE1=Eastern Dawn
TTITLE2=Rapture
TTITLE3=Untouchable
TTITLE4=Fortune Teller
TTITLE5=Caste One Stone
TTITLE6=Between World's
TTITLE7=Panorama
TTITLE8=The Only Answer
TTITLE9=Incarnation
TTITLE10=Set On Freedom
EXTD=YEAR: 2004
EXTT0=
EXTT1=
EXTT2=
EXTT3=
EXTT4=
EXTT5=
EXTT6=
EXTT7=
EXTT8=
EXTT9=
EXTT10=
PLAYORDER=
